<svg enable-background="new 0 0 24 24" viewBox="0 0 24 24" xmlns="http://www.w3.org/2000/svg">
    <path
        d="m19.371 2h1.629c.552 0 1-.448 1-1s-.448-1-1-1h-4c-.552 0-1 .448-1 1v4c0 .552.448 1 1 1s1-.448 1-1v-1.523c2.519 1.754 4 4.85 4 8.523 0 5.514-4.486 10-10 10s-10-4.486-10-10c0-5.21 3.908-9.492 9.09-9.959.55-.05.956-.536.906-1.086-.049-.549-.524-.942-1.086-.906-6.22.561-10.91 5.699-10.91 11.951 0 6.617 5.383 12 12 12s12-5.383 12-12c0-4.166-1.742-7.848-4.629-10z"
        fill="#7288AA" />/> </svg>